<svg width="109" height="72" viewBox="0 0 109 72" fill="none" xmlns="http://www.w3.org/2000/svg">
<path d="M40.6676 21.8551L54.832 19.7188L62.4579 27.3448L30.7758 31.6045L35.1131 0L42.7262 7.61304L40.6676 21.8551Z" fill="#494949"/>
<path d="M72.5052 33.2874L64.8792 25.6614L66.9767 11.497L52.7346 13.465L45.1604 5.90377L76.7778 1.56641L72.5052 33.2874Z" fill="#1BA1D6"/>
<path d="M6.07231 35.799C7.24712 35.7676 8.41621 35.9735 9.50963 36.4043C10.603 36.8351 11.5983 37.482 12.4359 38.3064C13.2736 39.1307 13.9364 40.1155 14.3846 41.2019C14.8329 42.2883 15.0574 43.4539 15.0448 44.6291C15.0592 45.8048 14.8359 46.9712 14.3883 48.0584C13.9407 49.1457 13.278 50.1312 12.44 50.9559C11.602 51.7806 10.606 52.4275 9.51173 52.8577C8.41749 53.2878 7.2476 53.4924 6.07231 53.4592H0V35.799H6.07231ZM6.07231 50.1706C6.81075 50.2188 7.55091 50.1081 8.24299 49.8461C8.93507 49.5841 9.563 49.1769 10.0844 48.6518C10.6058 48.1267 11.0086 47.4959 11.2658 46.802C11.5229 46.1081 11.6283 45.3672 11.5749 44.6291C11.6303 43.89 11.5263 43.1476 11.27 42.4521C11.0138 41.7566 10.6112 41.1243 10.0896 40.5977C9.56796 40.0712 8.9394 39.6627 8.24635 39.4C7.5533 39.1372 6.81191 39.0263 6.07231 39.0747H3.41812V50.1706H6.07231Z" fill="#494949"/>
<path d="M27.7072 44.0729C28.212 45.3344 28.2848 46.7275 27.9143 48.0348H19.1102C19.1102 49.7438 20.5214 50.6242 22.2434 50.6242C23.5633 50.6296 24.8664 50.3282 26.0499 49.7438L27.7331 51.5823C26.1621 52.811 24.2372 53.5011 22.2434 53.5503C21.383 53.589 20.524 53.448 19.7211 53.1363C18.9182 52.8246 18.189 52.3491 17.5799 51.7401C16.9709 51.1311 16.4954 50.4019 16.1838 49.599C15.8721 48.7961 15.7311 47.9371 15.7697 47.0767C15.7263 46.225 15.86 45.3735 16.1626 44.5762C16.4651 43.7788 16.9299 43.053 17.5274 42.4445C18.1249 41.836 18.8422 41.3582 19.6339 41.0412C20.4256 40.7242 21.2745 40.575 22.1269 40.603C23.3015 40.5343 24.4686 40.831 25.4678 41.4523C26.4669 42.0736 27.2492 42.989 27.7072 44.0729ZM19.2396 46.015H25.0142C25.0078 45.6576 24.9049 45.3087 24.7163 45.0051C24.4579 44.553 24.0789 44.1816 23.6217 43.9324C23.1644 43.6832 22.6469 43.566 22.1269 43.5938C21.4283 43.5559 20.7414 43.7849 20.2053 44.2344C19.6692 44.684 19.324 45.3205 19.2396 46.015Z" fill="#494949"/>
<path d="M33.6631 53.4596L27.8368 40.8359H31.242L34.6989 48.7338L38.1817 40.8359H41.561L35.7347 53.4596H33.6631Z" fill="#494949"/>
<path d="M52.9675 44.0731C53.4749 45.3346 53.5433 46.73 53.1617 48.035H44.3575C44.3575 49.7441 45.7687 50.6245 47.4907 50.6245C48.8108 50.6313 50.1142 50.3298 51.2972 49.7441L52.9933 51.5826C51.4175 52.8114 49.4884 53.5013 47.4907 53.5506C46.6303 53.5892 45.7713 53.4482 44.9684 53.1365C44.1655 52.8249 43.4363 52.3494 42.8273 51.7404C42.2182 51.1314 41.7428 50.4022 41.4311 49.5993C41.1194 48.7964 40.9784 47.9373 41.017 47.0769C40.9736 46.2252 41.1074 45.3738 41.4099 44.5764C41.7125 43.7791 42.1772 43.0532 42.7747 42.4448C43.3723 41.8363 44.0895 41.3585 44.8813 41.0415C45.673 40.7245 46.5218 40.5753 47.3742 40.6033C48.5509 40.5318 49.7209 40.8272 50.7227 41.4487C51.7245 42.0701 52.5088 42.9871 52.9675 44.0731ZM44.4869 46.0152H50.2615C50.2613 45.657 50.1579 45.3064 49.9637 45.0053C49.7087 44.5502 49.3304 44.1763 48.8723 43.9266C48.4142 43.6769 47.8949 43.5617 47.3742 43.5941C46.6763 43.5592 45.991 43.7893 45.4556 44.2383C44.9202 44.6873 44.5742 45.322 44.4869 46.0152Z" fill="#494949"/>
<path d="M54.8579 35.7993H58.0818V53.4595H54.8579V35.7993Z" fill="#494949"/>
<path d="M72.3626 47.1414C72.3626 48.8583 71.6806 50.5049 70.4665 51.719C69.2525 52.933 67.6059 53.6151 65.889 53.6151C64.172 53.6151 62.5254 52.933 61.3114 51.719C60.0973 50.5049 59.4153 48.8583 59.4153 47.1414C59.4153 45.4245 60.0973 43.7779 61.3114 42.5638C62.5254 41.3498 64.172 40.6677 65.889 40.6677C67.6059 40.6677 69.2525 41.3498 70.4665 42.5638C71.6806 43.7779 72.3626 45.4245 72.3626 47.1414ZM62.6262 47.1414C62.6106 47.5779 62.683 48.013 62.8393 48.4209C62.9956 48.8287 63.2325 49.2008 63.5359 49.515C63.8392 49.8293 64.2028 50.0791 64.6049 50.2497C65.0069 50.4202 65.4393 50.508 65.876 50.5077C66.3133 50.5079 66.7462 50.4202 67.149 50.2498C67.5518 50.0794 67.9161 49.8298 68.2205 49.5158C68.5249 49.2017 68.763 48.8297 68.9207 48.4218C69.0785 48.0139 69.1526 47.5785 69.1387 47.1414C69.1508 46.7041 69.0755 46.2689 68.9173 45.8611C68.7591 45.4532 68.521 45.0811 68.2172 44.7664C67.9134 44.4517 67.5498 44.2008 67.1478 44.0284C66.7458 43.8559 66.3134 43.7654 65.876 43.7621C65.4387 43.7636 65.006 43.853 64.6039 44.025C64.2018 44.1969 63.8383 44.448 63.5352 44.7632C63.232 45.0785 62.9953 45.4515 62.8392 45.86C62.683 46.2685 62.6106 46.7043 62.6262 47.1414Z" fill="#494949"/>
<path d="M86.1128 47.1412C86.1512 47.9732 86.0212 48.8044 85.7307 49.585C85.4401 50.3656 84.995 51.0795 84.4219 51.684C83.8489 52.2885 83.1598 52.771 82.3958 53.1028C81.6318 53.4346 80.8087 53.6087 79.9758 53.6148C79.3542 53.6189 78.7384 53.4959 78.1662 53.2532C77.5939 53.0105 77.0774 52.6533 76.6483 52.2036V58.1076H73.4503V40.8358H75.5866L75.7679 42.6355C76.2768 42.0147 76.9199 41.5174 77.6487 41.181C78.3776 40.8446 79.1732 40.6779 79.9758 40.6934C80.8075 40.696 81.63 40.8669 82.3939 41.1958C83.1578 41.5248 83.8472 42.0049 84.4206 42.6073C84.994 43.2098 85.4395 43.922 85.7303 44.7012C86.0212 45.4804 86.1513 46.3104 86.1128 47.1412ZM76.4282 47.1412C76.4126 47.5789 76.485 48.0152 76.641 48.4245C76.797 48.8338 77.0335 49.2076 77.3364 49.5238C77.6394 49.8401 78.0028 50.0924 78.4049 50.2658C78.8071 50.4392 79.24 50.5302 79.678 50.5334C80.1165 50.532 80.5502 50.4422 80.9532 50.2694C81.3562 50.0966 81.7203 49.8444 82.0236 49.5278C82.327 49.2111 82.5634 48.8366 82.7187 48.4265C82.8741 48.0165 82.9452 47.5793 82.9278 47.1412C82.9435 46.7053 82.871 46.2707 82.7145 45.8636C82.5581 45.4565 82.321 45.0852 82.0174 44.772C81.7139 44.4588 81.3502 44.2102 80.9482 44.041C80.5462 43.8719 80.1141 43.7858 79.678 43.7878C79.2391 43.7823 78.8037 43.8658 78.3979 44.0332C77.9922 44.2006 77.6246 44.4485 77.3173 44.7619C77.0099 45.0753 76.7693 45.4476 76.6098 45.8566C76.4503 46.2655 76.3753 46.7025 76.3894 47.1412H76.4282Z" fill="#494949"/>
<path d="M98.7236 44.0727C99.2284 45.3342 99.3012 46.7274 98.9307 48.0346H90.1265C90.1464 48.4151 90.2449 48.7873 90.4158 49.1278C90.5867 49.4682 90.8262 49.7696 91.1194 50.0129C91.4126 50.2562 91.7529 50.4361 92.1191 50.5413C92.4853 50.6465 92.8692 50.6747 93.2468 50.6241C94.5711 50.631 95.8787 50.3296 97.0663 49.7437L98.7495 51.5822C97.174 52.8365 95.2339 53.5453 93.2209 53.602C92.3605 53.6406 91.5015 53.4996 90.6986 53.1879C89.8957 52.8763 89.1665 52.4008 88.5575 51.7918C87.9485 51.1827 87.473 50.4535 87.1613 49.6506C86.8496 48.8477 86.7086 47.9887 86.7473 47.1283C86.7038 46.2766 86.8376 45.4251 87.1401 44.6278C87.4427 43.8305 87.9074 43.1046 88.5049 42.4961C89.1025 41.8877 89.8198 41.4098 90.6115 41.0928C91.4032 40.7759 92.2521 40.6266 93.1044 40.6546C94.2795 40.5736 95.4508 40.8587 96.4571 41.4709C97.4634 42.083 98.2552 42.992 98.7236 44.0727ZM90.243 46.0148H96.0305C96.0258 45.6554 95.9179 45.3049 95.7198 45.0049C95.4648 44.5498 95.0865 44.1758 94.6284 43.9262C94.1703 43.6765 93.651 43.5613 93.1303 43.5937C92.4324 43.5588 91.7472 43.7889 91.2117 44.2379C90.6763 44.6869 90.3303 45.3216 90.243 46.0148Z" fill="#494949"/>
<path d="M107.23 43.7619C104.874 43.7619 103.695 45.3545 103.695 47.7497V53.4595H100.484V40.8358H102.634L102.983 43.5677C103.451 42.6564 104.171 41.8986 105.057 41.3844C105.943 40.8703 106.958 40.6215 107.981 40.6675H108.512V43.7619H107.23Z" fill="#494949"/>
<path d="M14.8505 69.0223H13.4651L18.152 57.6934H18.8642L23.5381 69.0223H22.1527L20.9228 66.0056H16.0805L14.8505 69.0223ZM16.5336 64.8273H20.4826L18.5016 60.0239L16.5336 64.8273Z" fill="#494949"/>
<path d="M23.9526 69.0223V68.2066L29.0539 62.0436H24.3928V60.9302H30.7888V61.7329L25.7135 67.9088H30.983V69.0223H23.9526Z" fill="#494949"/>
<path d="M39.3988 63.1831C39.6523 63.8435 39.7063 64.5638 39.5541 65.2546H32.8474C32.8419 65.6447 32.9188 66.0316 33.0731 66.3899C33.2274 66.7482 33.4556 67.0699 33.7429 67.3339C34.0301 67.5979 34.3698 67.7982 34.7398 67.9219C35.1099 68.0455 35.5018 68.0896 35.89 68.0513C36.8911 68.0556 37.8686 67.7478 38.6867 67.1708L39.3211 67.8829C38.3596 68.6951 37.1483 69.1522 35.89 69.1777C35.3332 69.2106 34.7756 69.1266 34.2531 68.9313C33.7306 68.7359 33.2547 68.4335 32.856 68.0433C32.4573 67.6531 32.1447 67.1839 31.938 66.6658C31.7314 66.1476 31.6354 65.592 31.6563 65.0345C31.6348 64.4874 31.7259 63.9417 31.9239 63.4312C32.1219 62.9206 32.4226 62.4562 32.8073 62.0666C33.1921 61.677 33.6527 61.3705 34.1607 61.1661C34.6687 60.9618 35.2132 60.8638 35.7606 60.8784C36.5305 60.841 37.2933 61.0423 37.9445 61.4548C38.5957 61.8674 39.1036 62.4709 39.3988 63.1831ZM32.9251 64.4778H38.5054C38.5078 64.1623 38.4462 63.8495 38.3241 63.5585C38.1219 63.0467 37.7618 62.6127 37.2962 62.3194C36.8306 62.026 36.2836 61.8887 35.7347 61.9272C35.0286 61.9048 34.3409 62.1542 33.8133 62.6239C33.2857 63.0937 32.9585 63.748 32.8992 64.4519L32.9251 64.4778Z" fill="#494949"/>
<path d="M45.1085 61.9922C42.7909 61.9922 41.9105 63.5588 41.9105 65.5915V69.0614H40.7323V60.9305H41.5609L41.6775 63.1186C41.9646 62.4007 42.4707 61.7916 43.1239 61.3779C43.777 60.9642 44.5439 60.7668 45.3157 60.814H45.5228V61.9922H45.1085Z" fill="#494949"/>
<path d="M47.4908 62.5745C47.7823 62.0341 48.2166 61.5842 48.7463 61.2737C49.276 60.9632 49.8807 60.8041 50.4946 60.8137C51.034 60.817 51.5674 60.9276 52.0636 61.1391C52.5599 61.3506 53.0091 61.6587 53.385 62.0455C53.761 62.4323 54.0562 62.8901 54.2535 63.3921C54.4508 63.8942 54.5462 64.4305 54.5342 64.9698C54.548 65.5089 54.4537 66.0454 54.2569 66.5475C54.0601 67.0496 53.7648 67.5072 53.3883 67.8934C53.0118 68.2795 52.5618 68.5864 52.0648 68.7958C51.5678 69.0053 51.0339 69.1131 50.4946 69.1129C49.8198 69.1195 49.156 68.9422 48.5743 68.6001C47.9926 68.2579 47.5151 67.7638 47.193 67.1708V68.9964H46.3514V57.6934H47.5426L47.4908 62.5745ZM47.4002 64.9698C47.395 65.3641 47.4683 65.7555 47.6156 66.1213C47.763 66.4871 47.9815 66.82 48.2585 67.1006C48.5356 67.3813 48.8656 67.6041 49.2294 67.7562C49.5933 67.9082 49.9837 67.9865 50.3781 67.9865C50.7718 67.9866 51.1617 67.9082 51.5248 67.756C51.8879 67.6037 52.2171 67.3807 52.4931 67.0999C52.7691 66.819 52.9865 66.486 53.1324 66.1203C53.2783 65.7546 53.3499 65.3635 53.343 64.9698C53.3447 64.5793 53.2693 64.1924 53.1211 63.8312C52.9728 63.4699 52.7547 63.1416 52.4792 62.8649C52.2037 62.5882 51.8763 62.3686 51.5157 62.2188C51.1552 62.069 50.7685 61.9919 50.3781 61.9919C49.5883 61.9919 48.8309 62.3056 48.2724 62.8641C47.7139 63.4225 47.4002 64.18 47.4002 64.9698Z" fill="#494949"/>
<path d="M62.5875 69.0222V67.1966C62.263 67.7828 61.7861 68.2704 61.2071 68.6077C60.6282 68.945 59.9688 69.1196 59.2988 69.1128C58.7595 69.113 58.2256 69.0052 57.7287 68.7957C57.2317 68.5862 56.7817 68.2794 56.4052 67.8932C56.0287 67.5071 55.7333 67.0495 55.5365 66.5474C55.3397 66.0452 55.2454 65.5088 55.2593 64.9696C55.2472 64.4304 55.3426 63.8941 55.5399 63.392C55.7372 62.89 56.0325 62.4322 56.4084 62.0454C56.7844 61.6586 57.2336 61.3504 57.7298 61.1389C58.2261 60.9275 58.7594 60.8168 59.2988 60.8135C59.9699 60.8094 60.6296 60.9865 61.2084 61.326C61.7872 61.6656 62.2636 62.155 62.5875 62.7427V60.9301H63.4291V69.0222H62.5875ZM62.3156 64.9696C62.3225 64.5749 62.2505 64.1827 62.1037 63.8161C61.957 63.4495 61.7385 63.1159 61.4612 62.8349C61.1838 62.5539 60.853 62.3311 60.4884 62.1797C60.1238 62.0282 59.7325 61.9511 59.3377 61.9529C58.9445 61.9528 58.5553 62.0313 58.1928 62.1836C57.8304 62.336 57.5021 62.5593 57.2271 62.8403C56.9521 63.1213 56.736 63.4544 56.5915 63.8201C56.447 64.1857 56.3771 64.5766 56.3857 64.9696C56.3771 65.3627 56.447 65.7536 56.5915 66.1192C56.736 66.4849 56.9521 66.818 57.2271 67.099C57.5021 67.38 57.8304 67.6033 58.1928 67.7556C58.5553 67.908 58.9445 67.9865 59.3377 67.9864C59.7325 67.9882 60.1238 67.9111 60.4884 67.7596C60.853 67.6081 61.1838 67.3854 61.4612 67.1044C61.7385 66.8234 61.957 66.4898 62.1037 66.1232C62.2505 65.7566 62.3225 65.3644 62.3156 64.9696Z" fill="#494949"/>
<path d="M65.1769 59.26C65.1802 59.1687 65.2017 59.079 65.2401 58.9961C65.2785 58.9132 65.3331 58.8389 65.4006 58.7774C65.4681 58.7159 65.5473 58.6685 65.6333 58.638C65.7194 58.6074 65.8107 58.5944 65.9019 58.5996C65.9942 58.5926 66.0869 58.6043 66.1745 58.634C66.2621 58.6637 66.3428 58.7108 66.4117 58.7725C66.4806 58.8342 66.5364 58.9091 66.5756 58.9929C66.6148 59.0767 66.6367 59.1675 66.6399 59.26C66.6367 59.3524 66.6148 59.4432 66.5756 59.527C66.5364 59.6108 66.4806 59.6858 66.4117 59.7474C66.3428 59.8091 66.2621 59.8562 66.1745 59.8859C66.0869 59.9156 65.9942 59.9273 65.9019 59.9203C65.8107 59.9255 65.7194 59.9125 65.6333 59.882C65.5473 59.8514 65.4681 59.804 65.4006 59.7425C65.3331 59.681 65.2785 59.6067 65.2401 59.5238C65.2017 59.4409 65.1802 59.3512 65.1769 59.26ZM65.3064 60.9302H66.4846V69.0223H65.3064V60.9302Z" fill="#494949"/>
<path d="M69.825 59.26C69.8218 59.3524 69.7999 59.4432 69.7607 59.527C69.7214 59.6108 69.6657 59.6858 69.5968 59.7474C69.5278 59.8091 69.4471 59.8562 69.3595 59.8859C69.2719 59.9156 69.1792 59.9273 69.087 59.9203C68.9958 59.9255 68.9045 59.9125 68.8184 59.882C68.7323 59.8514 68.6532 59.804 68.5857 59.7425C68.5181 59.681 68.4636 59.6067 68.4251 59.5238C68.3867 59.4409 68.3652 59.3512 68.3619 59.26C68.3652 59.1687 68.3867 59.079 68.4251 58.9961C68.4636 58.9132 68.5181 58.8389 68.5857 58.7774C68.6532 58.7159 68.7323 58.6685 68.8184 58.638C68.9045 58.6074 68.9958 58.5944 69.087 58.5996C69.1792 58.5926 69.2719 58.6043 69.3595 58.634C69.4471 58.6637 69.5278 58.7108 69.5968 58.7725C69.6657 58.8342 69.7214 58.9091 69.7607 58.9929C69.7999 59.0767 69.8218 59.1675 69.825 59.26ZM68.5302 72.0002V60.9302H69.7085V72.0002H68.5302Z" fill="#494949"/>
<path d="M78.2926 69.0222V67.1966C77.9681 67.7828 77.4912 68.2704 76.9123 68.6077C76.3333 68.945 75.674 69.1196 75.004 69.1128C74.4641 69.1129 73.9296 69.0052 73.4319 68.7959C72.9342 68.5866 72.4834 68.2799 72.1059 67.894C71.7284 67.508 71.4318 67.0505 71.2335 66.5483C71.0353 66.0461 70.9394 65.5094 70.9515 64.9696C70.9394 64.4293 71.0352 63.8919 71.2333 63.389C71.4314 62.8861 71.7278 62.4278 72.1051 62.0408C72.4825 61.6538 72.9332 61.3459 73.431 61.1352C73.9287 60.9245 74.4635 60.8151 75.004 60.8135C75.675 60.8094 76.3347 60.9865 76.9135 61.326C77.4923 61.6656 77.9687 62.155 78.2926 62.7427V60.9301H79.1342V69.0222H78.2926ZM78.0207 64.9696C78.0242 64.1877 77.7187 63.4361 77.1706 62.8784C76.6226 62.3207 75.8764 62.002 75.0946 61.9918C74.7008 61.9917 74.311 62.0701 73.9479 62.2223C73.5847 62.3745 73.2556 62.5976 72.9796 62.8784C72.7035 63.1592 72.4862 63.4922 72.3403 63.8579C72.1944 64.2237 72.1228 64.6148 72.1297 65.0085C72.128 65.3989 72.2034 65.7859 72.3516 66.1471C72.4999 66.5083 72.718 66.8367 72.9935 67.1134C73.269 67.3901 73.5964 67.6096 73.957 67.7595C74.3175 67.9093 74.7041 67.9864 75.0946 67.9864C75.4851 67.9813 75.8707 67.8992 76.2294 67.7447C76.588 67.5901 76.9126 67.3663 77.1845 67.086C77.4564 66.8057 77.6702 66.4744 77.8137 66.1112C77.9572 65.7481 78.0275 65.3601 78.0207 64.9696Z" fill="#494949"/>
<path d="M88.4303 64.6723V69.0226H87.265V64.7111C87.265 62.8079 86.2681 61.9533 84.7662 61.9533C83.2643 61.9533 81.9825 63.0927 81.9825 65.1643V69.0485H80.8043V60.9305H81.6459L81.7106 62.769C81.9948 62.1639 82.4509 61.6559 83.0219 61.3082C83.5929 60.9606 84.2535 60.7887 84.9216 60.814C87.1226 60.814 88.4303 62.2511 88.4303 64.6723Z" fill="#494949"/>
</svg>
