<svg width="79" height="86" viewBox="0 0 79 86" fill="none" xmlns="http://www.w3.org/2000/svg">
<path d="M17.9167 43H53.75V46.5833H17.9167V43ZM45.924 32.25H17.9167V35.8333H50.3351C48.7226 34.8192 47.2427 33.6188 45.924 32.25ZM17.9167 25.0833H41.2083C40.7282 23.9367 40.3591 22.7327 40.0652 21.5H17.9167V25.0833ZM64.5 39.3271V48.5291C64.5 63.2458 43 57.3333 43 57.3333C43 57.3333 48.4395 78.8333 33.5472 78.8333H7.16667V7.16667H41.2083C42.3263 4.48275 43.9424 2.064 45.924 0H0V86H36.5106C47.8447 86 71.6667 60.1176 71.6667 51.5498V37.625C69.4342 38.5567 67.0191 39.1336 64.5 39.3271ZM78.8333 16.125C78.8333 25.0296 71.6129 32.25 62.7083 32.25C53.8037 32.25 46.5833 25.0296 46.5833 16.125C46.5833 7.22042 53.8037 0 62.7083 0C71.6129 0 78.8333 7.22042 78.8333 16.125ZM71.1077 12.9645L68.6137 10.4705L61.0313 18.2428L57.4767 14.8708L54.9827 17.3684L61.0313 23.2343L71.1077 12.9645Z" fill="#003054"/>
</svg>
