<svg width="107" height="71" viewBox="0 0 107 71" fill="none" xmlns="http://www.w3.org/2000/svg">
<path d="M40.1009 21.5516L54.068 19.4449L61.5877 26.965L30.3469 31.1655L34.6239 0L42.1309 7.5073L40.1009 21.5516Z" fill="#494949"/>
<path d="M71.4951 32.8254L63.9754 25.3053L66.0436 11.3376L51.9999 13.2783L44.5312 5.82204L75.7082 1.54492L71.4951 32.8254Z" fill="#B5B5B5"/>
<path d="M5.98771 35.3019C7.14616 35.2709 8.29896 35.4739 9.37715 35.8988C10.4553 36.3236 11.4367 36.9616 12.2627 37.7745C13.0887 38.5873 13.7422 39.5585 14.1842 40.6298C14.6263 41.7011 14.8476 42.8505 14.8352 44.0094C14.8494 45.1687 14.6293 46.319 14.1879 47.3911C13.7465 48.4632 13.093 49.435 12.2667 50.2483C11.4403 51.0615 10.4582 51.6994 9.37921 52.1236C8.30022 52.5478 7.14663 52.7496 5.98771 52.7168H0V35.3019H5.98771ZM5.98771 49.4739C6.71586 49.5214 7.44572 49.4123 8.12815 49.1539C8.81059 48.8956 9.42977 48.494 9.94392 47.9762C10.4581 47.4584 10.8553 46.8364 11.1088 46.1521C11.3623 45.4678 11.4663 44.7372 11.4137 44.0094C11.4682 43.2805 11.3657 42.5484 11.113 41.8626C10.8603 41.1768 10.4634 40.5532 9.94903 40.034C9.43466 39.5147 8.81486 39.1119 8.13146 38.8529C7.44807 38.5938 6.71701 38.4844 5.98771 38.5321H3.3705V49.4739H5.98771Z" fill="#494949"/>
<path d="M27.3212 43.4606C27.8189 44.7045 27.8908 46.0783 27.5254 47.3674H18.8439C18.8439 49.0528 20.2355 49.9209 21.9335 49.9209C23.235 49.9262 24.52 49.629 25.687 49.0528L27.3467 50.8657C25.7976 52.0773 23.8995 52.7578 21.9335 52.8064C21.0851 52.8445 20.238 52.7054 19.4463 52.3981C18.6546 52.0908 17.9355 51.6219 17.335 51.0213C16.7345 50.4208 16.2656 49.7017 15.9583 48.91C15.651 48.1182 15.5119 47.2711 15.55 46.4226C15.5072 45.5828 15.6391 44.7432 15.9374 43.9569C16.2357 43.1706 16.694 42.4549 17.2832 41.8548C17.8724 41.2548 18.5797 40.7836 19.3604 40.471C20.1411 40.1584 20.9781 40.0113 21.8186 40.0389C22.9768 39.9711 24.1277 40.2637 25.1129 40.8764C26.0982 41.4891 26.8696 42.3918 27.3212 43.4606ZM18.9716 45.3757H24.6657C24.6594 45.0233 24.5579 44.6792 24.372 44.3798C24.1172 43.934 23.7434 43.5678 23.2926 43.3221C22.8417 43.0763 22.3314 42.9607 21.8186 42.9882C21.1297 42.9508 20.4524 43.1766 19.9238 43.6199C19.3952 44.0632 19.0547 44.6908 18.9716 45.3757Z" fill="#494949"/>
<path d="M33.1941 52.7174L27.449 40.269H30.8067L34.2155 48.0572L37.6498 40.269H40.982L35.2368 52.7174H33.1941Z" fill="#494949"/>
<path d="M52.2296 43.4608C52.7299 44.7048 52.7974 46.0808 52.4211 47.3677H43.7395C43.7395 49.053 45.1311 49.9212 46.8291 49.9212C48.1308 49.9279 49.4161 49.6306 50.5826 49.053L52.2551 50.866C50.7012 52.0778 48.799 52.7581 46.8291 52.8067C45.9807 52.8448 45.1337 52.7057 44.3419 52.3984C43.5502 52.091 42.8312 51.6221 42.2306 51.0216C41.6301 50.421 41.1612 49.702 40.8539 48.9102C40.5466 48.1185 40.4076 47.2714 40.4456 46.4229C40.4028 45.583 40.5347 44.7434 40.833 43.9572C41.1314 43.1709 41.5897 42.4551 42.1789 41.8551C42.7681 41.2551 43.4753 40.7839 44.256 40.4713C45.0367 40.1587 45.8738 40.0115 46.7142 40.0391C47.8746 39.9687 49.0282 40.26 50.0161 40.8728C51.0039 41.4857 51.7773 42.3899 52.2296 43.4608ZM43.8672 45.376H49.5613C49.5611 45.0227 49.4591 44.6769 49.2676 44.3801C49.0162 43.9313 48.6432 43.5625 48.1915 43.3163C47.7397 43.0701 47.2277 42.9565 46.7142 42.9884C46.0261 42.9541 45.3504 43.181 44.8224 43.6237C44.2945 44.0664 43.9533 44.6923 43.8672 45.376Z" fill="#494949"/>
<path d="M54.0936 35.3022H57.2726V52.7171H54.0936V35.3022Z" fill="#494949"/>
<path d="M71.3545 46.4868C71.3545 48.1799 70.682 49.8036 69.4848 51.0008C68.2877 52.198 66.664 52.8706 64.971 52.8706C63.278 52.8706 61.6543 52.198 60.4572 51.0008C59.2601 49.8036 58.5875 48.1799 58.5875 46.4868C58.5875 44.7937 59.2601 43.17 60.4572 41.9728C61.6543 40.7756 63.278 40.103 64.971 40.103C66.664 40.103 68.2877 40.7756 69.4848 41.9728C70.682 43.17 71.3545 44.7937 71.3545 46.4868ZM61.7537 46.4868C61.7383 46.9172 61.8098 47.3463 61.9639 47.7485C62.118 48.1506 62.3516 48.5176 62.6507 48.8275C62.9498 49.1373 63.3083 49.3837 63.7048 49.5519C64.1013 49.7201 64.5276 49.8066 64.9583 49.8063C65.3895 49.8066 65.8164 49.7201 66.2135 49.552C66.6107 49.384 66.97 49.1378 67.2701 48.8282C67.5702 48.5185 67.805 48.1517 67.9606 47.7494C68.1161 47.3472 68.1892 46.9178 68.1755 46.4868C68.1874 46.0556 68.1132 45.6264 67.9572 45.2242C67.8011 44.8221 67.5664 44.4551 67.2668 44.1448C66.9672 43.8345 66.6087 43.587 66.2123 43.417C65.8159 43.247 65.3896 43.1577 64.9583 43.1545C64.527 43.1559 64.1004 43.244 63.7039 43.4136C63.3073 43.5832 62.9489 43.8308 62.65 44.1417C62.3511 44.4525 62.1177 44.8203 61.9637 45.2232C61.8097 45.6261 61.7383 46.0558 61.7537 46.4868Z" fill="#494949"/>
<path d="M84.9131 46.4866C84.9509 47.3071 84.8228 48.1268 84.5363 48.8966C84.2498 49.6663 83.8108 50.3703 83.2458 50.9664C82.6807 51.5625 82.0012 52.0383 81.2478 52.3655C80.4945 52.6927 79.6829 52.8644 78.8616 52.8704C78.2487 52.8745 77.6414 52.7531 77.0772 52.5138C76.5129 52.2744 76.0036 51.9222 75.5804 51.4787V57.3007H72.427V40.2689H74.5336L74.7123 42.0435C75.2141 41.4314 75.8482 40.941 76.5669 40.6092C77.2856 40.2775 78.0702 40.1131 78.8616 40.1284C79.6817 40.131 80.4928 40.2995 81.246 40.6239C81.9992 40.9483 82.679 41.4217 83.2444 42.0158C83.8098 42.6098 84.2492 43.3122 84.5359 44.0806C84.8227 44.8489 84.951 45.6674 84.9131 46.4866ZM75.3634 46.4866C75.348 46.9183 75.4194 47.3486 75.5732 47.7522C75.727 48.1557 75.9602 48.5244 76.259 48.8362C76.5578 49.1481 76.916 49.3969 77.3126 49.5679C77.7092 49.7389 78.1361 49.8286 78.5679 49.8317C79.0003 49.8304 79.428 49.7418 79.8254 49.5715C80.2228 49.4011 80.5818 49.1523 80.8809 48.8401C81.18 48.5279 81.4131 48.1585 81.5663 47.7542C81.7195 47.3498 81.7896 46.9187 81.7724 46.4866C81.7879 46.0568 81.7164 45.6283 81.5622 45.2269C81.4079 44.8254 81.1741 44.4592 80.8748 44.1504C80.5755 43.8415 80.2169 43.5964 79.8204 43.4296C79.424 43.2628 78.998 43.1779 78.5679 43.1799C78.1352 43.1745 77.7058 43.2568 77.3057 43.4219C76.9056 43.587 76.5431 43.8314 76.2401 44.1404C75.937 44.4494 75.6997 44.8166 75.5425 45.2199C75.3852 45.6231 75.3113 46.054 75.3251 46.4866H75.3634Z" fill="#494949"/>
<path d="M97.3481 43.4606C97.8459 44.7046 97.9177 46.0784 97.5524 47.3675H88.8708C88.8904 47.7426 88.9876 48.1097 89.1561 48.4454C89.3246 48.7812 89.5608 49.0784 89.8499 49.3183C90.139 49.5582 90.4746 49.7356 90.8357 49.8393C91.1967 49.9431 91.5754 49.9709 91.9477 49.921C93.2535 49.9278 94.5429 49.6305 95.7139 49.0528L97.3737 50.8658C95.8202 52.1026 93.9071 52.8016 91.9221 52.8575C91.0737 52.8956 90.2267 52.7565 89.4349 52.4492C88.6432 52.1419 87.9242 51.673 87.3237 51.0724C86.7231 50.4719 86.2543 49.7528 85.9469 48.961C85.6396 48.1693 85.5006 47.3222 85.5387 46.4737C85.4958 45.6339 85.6277 44.7942 85.9261 44.008C86.2244 43.2217 86.6827 42.5059 87.2719 41.9059C87.861 41.3059 88.5684 40.8347 89.349 40.5221C90.1297 40.2095 90.9668 40.0624 91.8072 40.09C92.9659 40.0101 94.1209 40.2913 95.1132 40.8949C96.1055 41.4985 96.8863 42.3949 97.3481 43.4606ZM88.9857 45.3757H94.6926C94.6879 45.0213 94.5815 44.6756 94.3862 44.3799C94.1347 43.931 93.7617 43.5623 93.31 43.3161C92.8583 43.0699 92.3462 42.9562 91.8328 42.9882C91.1446 42.9538 90.4689 43.1807 89.9409 43.6235C89.413 44.0662 89.0718 44.6921 88.9857 45.3757Z" fill="#494949"/>
<path d="M105.736 43.1539C103.412 43.1539 102.251 44.7243 102.251 47.0863V52.7168H99.0845V40.2685H101.204L101.548 42.9624C102.01 42.0638 102.719 41.3165 103.593 40.8095C104.467 40.3025 105.467 40.0571 106.477 40.1025H107V43.1539H105.736Z" fill="#494949"/>
<path d="M14.6437 68.0637H13.2776L17.8992 56.8921H18.6014L23.2103 68.0637H21.8442L20.6314 65.0888H15.8565L14.6437 68.0637ZM16.3034 63.927H20.1973L18.244 59.1902L16.3034 63.927Z" fill="#494949"/>
<path d="M23.6189 68.0637V67.2593L28.6491 61.182H24.053V60.084H30.3599V60.8756L25.3552 66.9657H30.5514V68.0637H23.6189Z" fill="#494949"/>
<path d="M38.8499 62.3053C39.0999 62.9565 39.1532 63.6668 39.0031 64.3481H32.3899C32.3844 64.7328 32.4602 65.1142 32.6124 65.4676C32.7646 65.8209 32.9896 66.1381 33.2728 66.3984C33.5561 66.6588 33.8911 66.8564 34.2559 66.9783C34.6208 67.1002 35.0073 67.1437 35.3901 67.1059C36.3772 67.1101 37.3411 66.8067 38.1478 66.2377L38.7733 66.9399C37.8253 67.7407 36.6309 68.1915 35.3901 68.2167C34.841 68.2491 34.2912 68.1663 33.776 67.9737C33.2607 67.781 32.7915 67.4828 32.3983 67.098C32.0052 66.7133 31.6969 66.2506 31.4931 65.7396C31.2894 65.2287 31.1948 64.6807 31.2153 64.131C31.1942 63.5915 31.284 63.0534 31.4792 62.5499C31.6744 62.0465 31.9709 61.5885 32.3503 61.2043C32.7297 60.8201 33.1839 60.5179 33.6848 60.3164C34.1857 60.1148 34.7227 60.0183 35.2624 60.0327C36.0217 59.9958 36.7738 60.1943 37.4159 60.6011C38.0581 61.0079 38.5589 61.6031 38.8499 62.3053ZM32.4665 63.582H37.969C37.9714 63.2709 37.9106 62.9625 37.7903 62.6755C37.5909 62.1709 37.2358 61.7428 36.7767 61.4536C36.3175 61.1643 35.7782 61.0289 35.2369 61.0668C34.5407 61.0448 33.8625 61.2907 33.3423 61.7539C32.8221 62.2172 32.4994 62.8624 32.4409 63.5565L32.4665 63.582Z" fill="#494949"/>
<path d="M44.48 61.131C42.1947 61.131 41.3266 62.6759 41.3266 64.6804V68.1021H40.1648V60.0841H40.9819L41.0968 62.2418C41.3799 61.5339 41.879 60.9332 42.523 60.5253C43.1671 60.1173 43.9233 59.9227 44.6843 59.9691H44.8886V61.131H44.48Z" fill="#494949"/>
<path d="M46.8292 61.7054C47.1166 61.1726 47.5449 60.7289 48.0672 60.4227C48.5895 60.1165 49.1858 59.9596 49.7911 59.9691C50.323 59.9723 50.849 60.0814 51.3383 60.2899C51.8276 60.4985 52.2705 60.8023 52.6413 61.1838C53.012 61.5652 53.3031 62.0166 53.4977 62.5117C53.6922 63.0068 53.7863 63.5356 53.7744 64.0674C53.7881 64.5991 53.6951 65.1281 53.501 65.6232C53.307 66.1184 53.0157 66.5697 52.6445 66.9504C52.2732 67.3312 51.8295 67.6338 51.3394 67.8404C50.8494 68.0469 50.3229 68.1532 49.7911 68.1531C49.1257 68.1595 48.4711 67.9847 47.8976 67.6473C47.324 67.3099 46.8532 66.8227 46.5356 66.2379V68.0381H45.7057V56.8921H46.8803L46.8292 61.7054ZM46.7398 64.0674C46.7348 64.4563 46.807 64.8423 46.9523 65.203C47.0976 65.5637 47.313 65.8919 47.5862 66.1687C47.8594 66.4454 48.1848 66.6652 48.5436 66.8151C48.9024 66.9651 49.2874 67.0423 49.6762 67.0423C50.0645 67.0423 50.4489 66.9651 50.807 66.8149C51.1651 66.6648 51.4897 66.4449 51.7618 66.1679C52.034 65.891 52.2483 65.5626 52.3922 65.202C52.536 64.8414 52.6066 64.4557 52.5999 64.0674C52.6015 63.6824 52.5272 63.3008 52.381 62.9446C52.2348 62.5884 52.0197 62.2646 51.7481 61.9918C51.4764 61.7189 51.1536 61.5024 50.798 61.3547C50.4425 61.207 50.0613 61.1309 49.6762 61.1309C48.8975 61.1309 48.1506 61.4403 47.5999 61.991C47.0492 62.5417 46.7398 63.2886 46.7398 64.0674Z" fill="#494949"/>
<path d="M61.7156 68.0634V66.2632C61.3956 66.8413 60.9253 67.3221 60.3545 67.6547C59.7836 67.9874 59.1334 68.1595 58.4728 68.1528C57.941 68.153 57.4145 68.0467 56.9245 67.8401C56.4344 67.6336 55.9907 67.331 55.6194 66.9502C55.2482 66.5694 54.9569 66.1181 54.7629 65.623C54.5688 65.1278 54.4758 64.5988 54.4895 64.0672C54.4776 63.5354 54.5717 63.0066 54.7662 62.5115C54.9608 62.0164 55.2519 61.565 55.6226 61.1835C55.9934 60.8021 56.4363 60.4983 56.9256 60.2897C57.4149 60.0812 57.9409 59.9721 58.4728 59.9688C59.1345 59.9648 59.785 60.1394 60.3557 60.4742C60.9264 60.809 61.3962 61.2916 61.7156 61.8712V60.0837H62.5454V68.0634H61.7156ZM61.4475 64.0672C61.4543 63.6779 61.3833 63.2911 61.2386 62.9297C61.0939 62.5682 60.8785 62.2392 60.605 61.9621C60.3314 61.685 60.0053 61.4653 59.6458 61.316C59.2862 61.1666 58.9004 61.0906 58.5111 61.0924C58.1234 61.0923 57.7396 61.1696 57.3822 61.3199C57.0248 61.4702 56.701 61.6903 56.4299 61.9674C56.1587 62.2445 55.9457 62.573 55.8032 62.9336C55.6607 63.2942 55.5917 63.6796 55.6002 64.0672C55.5917 64.4548 55.6607 64.8402 55.8032 65.2008C55.9457 65.5614 56.1587 65.8899 56.4299 66.167C56.701 66.4441 57.0248 66.6642 57.3822 66.8145C57.7396 66.9648 58.1234 67.0421 58.5111 67.042C58.9004 67.0438 59.2862 66.9678 59.6458 66.8184C60.0053 66.6691 60.3314 66.4494 60.605 66.1723C60.8785 65.8952 61.0939 65.5662 61.2386 65.2047C61.3833 64.8433 61.4543 64.4565 61.4475 64.0672Z" fill="#494949"/>
<path d="M64.2689 58.4368C64.2722 58.3468 64.2934 58.2583 64.3312 58.1766C64.3691 58.0949 64.4229 58.0216 64.4895 57.9609C64.5561 57.9003 64.6341 57.8535 64.719 57.8234C64.8039 57.7933 64.894 57.7805 64.9839 57.7857C65.0748 57.7787 65.1662 57.7902 65.2526 57.8195C65.339 57.8488 65.4186 57.8953 65.4865 57.9561C65.5545 58.0169 65.6095 58.0908 65.6482 58.1735C65.6868 58.2561 65.7084 58.3456 65.7116 58.4368C65.7084 58.528 65.6868 58.6175 65.6482 58.7001C65.6095 58.7828 65.5545 58.8567 65.4865 58.9175C65.4186 58.9783 65.339 59.0248 65.2526 59.0541C65.1662 59.0834 65.0748 59.0949 64.9839 59.0879C64.894 59.0931 64.8039 59.0803 64.719 59.0502C64.6341 59.0201 64.5561 58.9733 64.4895 58.9127C64.4229 58.852 64.3691 58.7787 64.3312 58.697C64.2934 58.6153 64.2722 58.5268 64.2689 58.4368ZM64.3966 60.0838H65.5584V68.0635H64.3966V60.0838Z" fill="#494949"/>
<path d="M68.8522 58.4368C68.849 58.528 68.8275 58.6175 68.7888 58.7001C68.7501 58.7828 68.6951 58.8567 68.6272 58.9175C68.5592 58.9783 68.4796 59.0248 68.3932 59.0541C68.3069 59.0834 68.2154 59.0949 68.1245 59.0879C68.0346 59.0931 67.9445 59.0803 67.8597 59.0502C67.7748 59.0201 67.6967 58.9733 67.6301 58.9127C67.5636 58.852 67.5097 58.7787 67.4719 58.697C67.434 58.6153 67.4128 58.5268 67.4095 58.4368C67.4128 58.3468 67.434 58.2583 67.4719 58.1766C67.5097 58.0949 67.5636 58.0216 67.6301 57.9609C67.6967 57.9003 67.7748 57.8535 67.8597 57.8234C67.9445 57.7933 68.0346 57.7805 68.1245 57.7857C68.2154 57.7787 68.3069 57.7902 68.3932 57.8195C68.4796 57.8488 68.5592 57.8953 68.6272 57.9561C68.6951 58.0169 68.7501 58.0908 68.7888 58.1735C68.8275 58.2561 68.849 58.3456 68.8522 58.4368ZM67.5755 71V60.0838H68.7373V71H67.5755Z" fill="#494949"/>
<path d="M77.2019 68.0634V66.2632C76.8819 66.8413 76.4117 67.3221 75.8408 67.6547C75.2699 67.9874 74.6197 68.1595 73.9591 68.1528C73.4267 68.1529 72.8997 68.0467 72.4089 67.8403C71.9182 67.6339 71.4736 67.3315 71.1014 66.9509C70.7291 66.5703 70.4367 66.1192 70.2412 65.624C70.0457 65.1287 69.9511 64.5995 69.963 64.0672C69.9512 63.5343 70.0456 63.0044 70.241 62.5085C70.4363 62.0126 70.7286 61.5606 71.1007 61.179C71.4727 60.7974 71.9172 60.4938 72.408 60.286C72.8988 60.0782 73.4261 59.9704 73.9591 59.9688C74.6208 59.9648 75.2713 60.1394 75.842 60.4742C76.4127 60.809 76.8826 61.2916 77.2019 61.8712V60.0837H78.0317V68.0634H77.2019ZM76.9338 64.0672C76.9372 63.2961 76.636 62.555 76.0956 62.005C75.5552 61.455 74.8194 61.1408 74.0485 61.1307C73.6602 61.1306 73.2758 61.2079 72.9177 61.358C72.5596 61.5081 72.235 61.7281 71.9629 62.005C71.6907 62.2819 71.4764 62.6103 71.3325 62.9709C71.1887 63.3316 71.1181 63.7173 71.1248 64.1055C71.1232 64.4905 71.1975 64.8721 71.3437 65.2283C71.4899 65.5845 71.705 65.9083 71.9766 66.1812C72.2483 66.454 72.5711 66.6705 72.9267 66.8183C73.2822 66.966 73.6634 67.042 74.0485 67.042C74.4335 67.037 74.8138 66.956 75.1674 66.8037C75.521 66.6513 75.8411 66.4306 76.1092 66.1542C76.3773 65.8777 76.5882 65.5511 76.7297 65.1929C76.8712 64.8348 76.9405 64.4522 76.9338 64.0672Z" fill="#494949"/>
<path d="M87.1983 63.7739V68.0638H86.0493V63.8122C86.0493 61.9354 85.0662 61.0927 83.5853 61.0927C82.1043 61.0927 80.8404 62.2163 80.8404 64.2591V68.0893H79.6786V60.0841H80.5084L80.5723 61.8971C80.8525 61.3004 81.3022 60.7994 81.8652 60.4566C82.4283 60.1138 83.0798 59.9443 83.7385 59.9692C85.9089 59.9692 87.1983 61.3864 87.1983 63.7739Z" fill="#494949"/>
</svg>
