<svg width="217" height="217" viewBox="0 0 217 217" fill="none" xmlns="http://www.w3.org/2000/svg">
<path opacity="0.15" fill-rule="evenodd" clip-rule="evenodd" d="M108.404 216.808C48.534 216.808 -5.23399e-06 168.274 0 108.404L9.47696e-06 0L108.404 9.47696e-06C168.274 1.47109e-05 216.808 48.534 216.808 108.404C216.808 168.274 168.274 216.808 108.404 216.808ZM53.2626 69.0623H165.751V80.5668H53.2626V69.0623ZM53.2626 130.419H165.751V141.924H53.2626V130.419ZM94.1674 89.5147H53.2626V101.019H94.1674V89.5147ZM101.837 89.5147H165.751V101.019H101.837V89.5147ZM124.846 121.472H165.751V109.967L124.846 109.967L124.846 121.472ZM117.176 121.472H53.2626V109.967L117.176 109.967V121.472Z" fill="#BEBEBE"/>
</svg>
