<svg width="217" height="217" viewBox="0 0 217 217" fill="none" xmlns="http://www.w3.org/2000/svg">
<path opacity="0.15" fill-rule="evenodd" clip-rule="evenodd" d="M108.404 0C168.274 0 216.808 48.534 216.808 108.404V216.808H108.404C48.534 216.808 0 168.274 0 108.404C0 48.534 48.534 0 108.404 0ZM109.551 147.5L127.412 72.8616H115.845L98.1962 147.5H109.551ZM90.2863 95.9795V83.4752L49.7589 105.218V114.886L90.2863 135.898V123.394L62.3467 110.117V109.687L90.2863 95.9795ZM163.304 109.687L135.407 95.9365V83.4752L175.934 105.175V114.886L135.407 135.856V123.351L163.304 110.117V109.687Z" fill="#0B96FF"/>
</svg>
